<?xml version="1.0" encoding="utf-8"?>
<!-- Generator: Adobe Illustrator 21.0.0, SVG Export Plug-In . SVG Version: 6.00 Build 0)  -->
<svg version="1.1" id="Layer_1" xmlns="http://www.w3.org/2000/svg" xmlns:xlink="http://www.w3.org/1999/xlink" x="0px" y="0px"
	 viewBox="0 0 50 50" style="enable-background:new 0 0 50 50;" xml:space="preserve">
<style type="text/css">
	.st0{fill:#FFFFFF;}
</style>
<g>
	<polygon class="st0" points="0,1 42.7,1 42.7,13.8 39.9,13.8 39.9,3.8 2.8,3.8 2.8,46.2 39.9,46.2 39.9,38.2 42.7,38.2 42.7,49 
		0,49 	"/>
	<path class="st0" d="M8.5,9.5v11.3h25.7V9.5H8.5z M31.3,17.9h-20v-5.6h20V17.9z"/>
	<polygon class="st0" points="8.5,30.1 8.5,27.3 24.3,27.3 24.3,30.1 8.5,30.1 	"/>
	<polygon class="st0" points="8.5,35.8 8.5,33 19.3,33 19.3,35.8 8.5,35.8 	"/>
	<path class="st0" d="M49.3,23c0,0-5.7-5.7-5.7-5.6c-0.6-0.6-1.4-0.6-2,0L24.7,34.3c-0.3,0.3-0.4,0.6-0.4,1v5.6
		c0,0.8,0.6,1.4,1.4,1.4h5.6c0.4,0,0.7-0.1,1-0.4l17-16.9C49.9,24.4,49.9,23.6,49.3,23z M30.8,39.5v0.1h-3.7v-3.7l10.6-10.7l3.7,3.7
		L30.8,39.5z M43.4,26.9l-3.7-3.7l2.9-2.9l3.7,3.7L43.4,26.9z"/>
</g>
</svg>
